<svg width="1280" height="720" xmlns="http://www.w3.org/2000/svg" xmlns:xlink="http://www.w3.org/1999/xlink" overflow="hidden"><defs><clipPath id="clip0"><rect x="0" y="0" width="1280" height="720"/></clipPath></defs><g clip-path="url(#clip0)"><rect x="0" y="0" width="1280" height="720" fill="#FFFFFF"/><path d="M136 193.667C136 186.119 142.119 180 149.667 180L626.333 180C633.881 180 640 186.119 640 193.667L640 248.333C640 255.881 633.881 262 626.333 262L149.667 262C142.119 262 136 255.881 136 248.333Z" stroke="#000000" stroke-width="2" stroke-linecap="round" stroke-miterlimit="8" stroke-dasharray="4 4" fill="#FFFFFF" fill-rule="evenodd"/><text fill="#ACA7A7" font-family="Monaco,Monaco_MSFontService,sans-serif" font-weight="400" font-size="21" transform="translate(150.347 229)">function f(uint256 <tspan font-size="21" x="243.833" y="0">arg</tspan>) public {<tspan fill="#009446" font-weight="700" font-size="21" x="410.667" y="0">:[1]</tspan><tspan font-size="21" x="462" y="0">}</tspan></text><path d="M716 193.667C716 186.119 722.119 180 729.667 180L1006.33 180C1013.88 180 1020 186.119 1020 193.667L1020 248.333C1020 255.881 1013.88 262 1006.33 262L729.667 262C722.119 262 716 255.881 716 248.333Z" stroke="#000000" stroke-width="2" stroke-linecap="round" stroke-miterlimit="8" fill="#FFFFFF" fill-rule="evenodd"/><text fill="#009446" font-family="Monaco,Monaco_MSFontService,sans-serif" font-weight="400" font-size="21" transform="translate(791.105 229)">g(<tspan font-size="21" x="25.6666" y="0">notfound</tspan>);</text><path d="M136 310.834C136 297.119 147.119 286 160.834 286L615.166 286C628.881 286 640 297.119 640 310.834L640 410.166C640 423.881 628.881 435 615.166 435L160.834 435C147.119 435 136 423.881 136 410.166Z" stroke="#000000" stroke-width="2" stroke-linecap="round" stroke-miterlimit="8" stroke-dasharray="4 4" fill="#FFFFFF" fill-rule="evenodd"/><text fill="#ACA7A7" font-family="Monaco,Monaco_MSFontService,sans-serif" font-weight="400" font-size="21" transform="translate(227.347 343)">function f(<tspan fill="#00709E" font-weight="700" font-size="21" x="141.167" y="0">:[1]</tspan><tspan font-size="21" x="192.5" y="0">) public {</tspan><tspan font-size="21" x="48" y="25">g(</tspan><tspan font-size="21" x="73.6667" y="25">notfound</tspan><tspan font-size="21" x="176.333" y="25">);</tspan><tspan font-size="21" x="0" y="51">}</tspan></text><path d="M136 483.834C136 470.119 147.119 459 160.834 459L615.166 459C628.881 459 640 470.119 640 483.834L640 583.166C640 596.881 628.881 608 615.166 608L160.834 608C147.119 608 136 596.881 136 583.166Z" stroke="#000000" stroke-width="2" stroke-linecap="round" stroke-miterlimit="8" stroke-dasharray="4 4" fill="#FFFFFF" fill-rule="evenodd"/><text fill="#ACA7A7" font-family="Monaco,Monaco_MSFontService,sans-serif" font-weight="400" font-size="21" transform="translate(182.43 516)">function f(uint256 <tspan font-size="21" x="243.833" y="0">arg</tspan>) public {<tspan font-size="21" x="48" y="25">g(</tspan><tspan fill="#B85818" font-weight="700" font-size="21" x="73.6667" y="25">:[1]</tspan><tspan font-size="21" x="125" y="25">);</tspan><tspan font-size="21" x="0" y="51">}</tspan></text><path d="M716 332.667C716 325.119 722.119 319 729.667 319L1006.33 319C1013.88 319 1020 325.119 1020 332.667L1020 387.333C1020 394.881 1013.88 401 1006.33 401L729.667 401C722.119 401 716 394.881 716 387.333Z" stroke="#000000" stroke-width="2" stroke-linecap="round" stroke-miterlimit="8" fill="#FFFFFF" fill-rule="evenodd"/><text fill="#00709E" font-family="Monaco,Monaco_MSFontService,sans-serif" font-weight="400" font-size="21" transform="translate(797.521 368)">uint256 <tspan font-size="21" x="102.667" y="0">arg</tspan></text><path d="M716 505.667C716 498.119 722.119 492 729.667 492L1006.33 492C1013.88 492 1020 498.119 1020 505.667L1020 560.333C1020 567.881 1013.88 574 1006.33 574L729.667 574C722.119 574 716 567.881 716 560.333Z" stroke="#000000" stroke-width="2" stroke-linecap="round" stroke-miterlimit="8" fill="#FFFFFF" fill-rule="evenodd"/><text fill="#B85818" font-family="Monaco,Monaco_MSFontService,sans-serif" font-weight="400" font-size="21" transform="translate(816.771 542)">notfound</text><path d="M645 231.826C656.667 217.183 668.333 202.541 673.889 219.846 679.444 237.151 679.63 289.897 678.333 335.655 677.037 381.413 661.667 464.941 666.111 494.393 670.556 523.844 687.778 518.104 705 512.363" stroke="#936241" stroke-width="2" stroke-linejoin="round" stroke-miterlimit="10" stroke-dasharray="8 6" fill="none" fill-rule="evenodd"/><path d="M717 231.29C706.681 221.037 696.363 210.784 694.221 224.94 692.08 239.095 711.354 298.494 704.15 316.221 696.947 333.949 673.973 332.626 651 331.303" stroke="#000000" stroke-width="2" stroke-linejoin="round" stroke-miterlimit="10" stroke-dasharray="8 6" fill="none" fill-rule="evenodd"/><path d="M705 359.266C686.947 347.049 668.894 334.831 665.177 358.456 661.46 382.082 686.062 469.428 682.699 501.019 679.336 532.61 650.133 541.25 645 548" stroke="#990000" stroke-width="2" stroke-linejoin="round" stroke-miterlimit="10" stroke-dasharray="8 6" fill="none" fill-rule="evenodd"/><path d="M650 412.685C661.861 405.532 673.722 398.379 679.37 406.833 685.018 415.287 685.207 441.055 683.889 463.408 682.571 485.762 666.944 526.568 671.463 540.956 675.982 555.344 693.491 552.539 711 549.735" stroke="#0070C0" stroke-width="2" stroke-linejoin="round" stroke-miterlimit="10" stroke-dasharray="8 6" fill="none" fill-rule="evenodd"/><path d="M611 158C611 151.649 615.112 146.5 620.183 146.5L665.817 146.5C670.888 146.5 675 141.351 675 135 675 141.351 679.112 146.5 684.183 146.5L729.817 146.5C734.888 146.5 739 151.649 739 158" stroke="#0070C0" stroke-width="2" stroke-linecap="round" stroke-miterlimit="8" fill="none" fill-rule="evenodd"/><text fill="#0070C0" font-family="Calibri,Calibri_MSFontService,sans-serif" font-weight="400" font-size="43" transform="translate(409.85 69)">Decompose and Cross-substitute<tspan font-size="32" x="-39.3133" y="41">new combinations of input “programs” for fuzzing</tspan></text><path d="M334 90 346.5 90 359 103 346.5 116 334 116 346.5 103Z" fill="#0070C0" fill-rule="evenodd"/></g></svg>