<?xml version="1.0" encoding="UTF-8"?>
<svg viewBox="0 0 66 59" version="1.1" xmlns="http://www.w3.org/2000/svg" xmlns:xlink="http://www.w3.org/1999/xlink">
    <!-- Generator: Sketch 47.1 (45422) - http://www.bohemiancoding.com/sketch -->
    <title>book</title>
    <desc>Created with Sketch.</desc>
    <defs>
        <circle id="path-1" cx="62" cy="3" r="3"></circle>
        <circle id="path-2" cx="33" cy="54" r="3"></circle>
        <circle id="path-3" cx="3.5" cy="3" r="3"></circle>
    </defs>
    <g id="Version-2" stroke="none" stroke-width="1" fill="none" fill-rule="evenodd">
        <g id="full-preview-4" transform="translate(-406.000000, -1399.000000)">
            <g id="book" transform="translate(406.000000, 1400.000000)">
                <path d="M33,12.275 C33,7.1499 46.572,3 62,3 L62,46.725 C46.572,46.725 33,50.8749 33,56 C33,50.8749 19.4253636,46.725 4,46.725 L4,3 C19.4253636,3 33,7.1499 33,12.275 Z" id="Stroke-1" stroke="#3F3F3F" stroke-linecap="round" stroke-linejoin="round"></path>
                <path d="M33,13 L33,57" id="Stroke-3" stroke="#3F3F3F" stroke-linecap="round" stroke-linejoin="round"></path>
                <g id="Oval-Copy-59" transform="translate(62.000000, 3.000000) rotate(-90.000000) translate(-62.000000, -3.000000) ">
                    <use fill="#C2C2C2" fill-rule="evenodd" xlink:href="#path-1"></use>
                    <circle stroke="#151515" stroke-width="1.5" cx="62" cy="3" r="2.25"></circle>
                    <use stroke="#151515" stroke-width="1" xlink:href="#path-1"></use>
                </g>
                <g id="Oval-Copy-102" transform="translate(33.000000, 54.000000) rotate(-90.000000) translate(-33.000000, -54.000000) ">
                    <use fill="#C2C2C2" fill-rule="evenodd" xlink:href="#path-2"></use>
                    <circle stroke="#151515" stroke-width="1.5" cx="33" cy="54" r="2.25"></circle>
                    <use stroke="#151515" stroke-width="1" xlink:href="#path-2"></use>
                </g>
                <g id="Oval-Copy-61" transform="translate(3.500000, 3.000000) rotate(-90.000000) translate(-3.500000, -3.000000) ">
                    <use fill="#C2C2C2" fill-rule="evenodd" xlink:href="#path-3"></use>
                    <circle stroke="#151515" stroke-width="1.5" cx="3.5" cy="3" r="2.25"></circle>
                    <use stroke="#151515" stroke-width="1" xlink:href="#path-3"></use>
                </g>
            </g>
        </g>
    </g>
</svg>