<?xml version="1.0" encoding="UTF-8"?>
<svg viewBox="0 0 100 100" version="1.1" xmlns="http://www.w3.org/2000/svg" xmlns:xlink="http://www.w3.org/1999/xlink">
    <!-- Generator: Sketch 55.1 (78136) - https://sketchapp.com -->
    <title>mark-github</title>
    <desc>Created with Sketch.</desc>
    <g id="Page-1" stroke="none" stroke-width="1" fill="none" fill-rule="evenodd">
        <path d="M86.9925054,50.5045129 C87.1250412,56.9455991 85.5155547,64.482826 80.9028034,70.945501 C76.3708039,77.5658948 69.3956063,82.61943 62.1297444,84.9414445 C60.8989722,85.1593339 59.8561631,84.7845822 59.6353564,83.5569224 C59.5315891,83.1634775 59.8868072,72.042055 59.1925595,70.4288931 C58.5726209,68.8027126 57.6911251,67.4893478 57.0449726,66.9924518 C69.3319722,65.8661868 73.5409106,59.6179368 73.8461571,50.5045129 C73.9332669,48.5056919 73.7101752,46.7329997 73.167257,45.0545685 C72.3816518,42.7159715 70.922634,40.8391434 70.1131998,40.0123184 C71.1017703,37.5941575 70.8960628,34.9325465 70.62348,33.4950689 C70.3997311,32.4007786 70.0237979,31.3148748 69.7482418,30.6373433 C66.7580929,30.1612363 62.7125181,32.3081354 59.711898,34.2635129 C53.8234636,32.6549098 47.740831,32.6549098 41.464,34.2635129 C36.9984435,31.4659339 33.6529955,30.2572107 31.4276561,30.6373433 C30.2570916,33.3748761 29.8705534,37.160581 31.0626982,40.0123184 C29.8657078,41.2397457 27.029687,44.6345938 27.3367996,50.5 C27.5863651,63.8365249 37.6644688,66.546242 44.0329519,66.9924518 C42.7204691,67.956162 41.9294405,69.515836 41.6598663,71.6714738 C39.872117,72.4667172 38.225919,72.7739409 36.9272696,72.6863921 C35.6286202,72.5988432 33.1056756,72.4843401 30.6102083,68.3020607 C28.6854518,65.6933353 26.0518566,64.6455896 23.9298085,65.410415 C21.8077603,66.1752403 24.6813908,66.9337709 25.7563076,67.7393991 C27.0286364,68.6657749 28.8001815,71.502687 29.2599156,72.8456346 C29.8181417,74.1418923 31.9053602,78.3394045 41.4183803,76.6720089 L41.4525865,82.5407291 C41.6053124,84.7687237 40.4741714,85.4704759 38.0591637,84.6459858 C30.6102083,82.0562942 13.8991746,72.7630218 14,50.5045129 C14.0629118,47.5998795 14.6720992,41.2175264 18.3991516,34.502389 C23.3288964,25.825485 33.6421411,16.2805245 50.4967095,16 C61.6633613,16 70.5054312,20.5497906 76.8924765,26.9559145 C84.3952005,34.2635129 86.9925054,44.790951 86.9925054,50.5045129 Z" id="Path-3" stroke="#FFA504"></path>
        <g id="Oval-Copy-275" transform="translate(31.000000, 40.000000) rotate(-90.000000) translate(-31.000000, -40.000000) translate(28.000000, 37.000000)" stroke="#151515">
            <circle id="Oval" stroke-width="1.5" fill="#FFA504" cx="3" cy="3" r="2.25"></circle>
            <g id="path-3-link">
                <circle id="path-3" cx="3" cy="3" r="3"></circle>
            </g>
        </g>
        <g id="Oval-Copy-275" transform="translate(58.000000, 67.000000) rotate(-90.000000) translate(-58.000000, -67.000000) translate(55.000000, 64.000000)" stroke="#151515">
            <circle id="Oval" stroke-width="1.5" fill="#FFA504" cx="3" cy="3" r="2.25"></circle>
            <g id="path-3-link">
                <circle id="path-3" cx="3" cy="3" r="3"></circle>
            </g>
        </g>
        <g id="Oval-Copy-275" transform="translate(70.000000, 30.000000) rotate(-90.000000) translate(-70.000000, -30.000000) translate(67.000000, 27.000000)" stroke="#151515">
            <circle id="Oval" stroke-width="1.5" fill="#FFA504" cx="3" cy="3" r="2.25"></circle>
            <g id="path-3-link">
                <circle id="path-3" cx="3" cy="3" r="3"></circle>
            </g>
        </g>
        <g id="Oval-Copy-275" transform="translate(61.000000, 85.000000) rotate(-90.000000) translate(-61.000000, -85.000000) translate(58.000000, 82.000000)" stroke="#151515">
            <circle id="Oval" stroke-width="1.5" fill="#FFA504" cx="3" cy="3" r="2.25"></circle>
            <g id="path-3-link">
                <circle id="path-3" cx="3" cy="3" r="3"></circle>
            </g>
        </g>
        <g id="Oval-Copy-275" transform="translate(84.000000, 37.000000) rotate(-90.000000) translate(-84.000000, -37.000000) translate(81.000000, 34.000000)" stroke="#151515">
            <circle id="Oval" stroke-width="1.5" fill="#FFA504" cx="3" cy="3" r="2.25"></circle>
            <g id="path-3-link">
                <circle id="path-3" cx="3" cy="3" r="3"></circle>
            </g>
        </g>
        <g id="Oval-Copy-275" transform="translate(23.000000, 65.000000) rotate(-90.000000) translate(-23.000000, -65.000000) translate(20.000000, 62.000000)" stroke="#151515">
            <circle id="Oval" stroke-width="1.5" fill="#FFA504" cx="3" cy="3" r="2.25"></circle>
            <g id="path-3-link">
                <circle id="path-3" cx="3" cy="3" r="3"></circle>
            </g>
        </g>
    </g>
</svg>