<?xml version="1.0" encoding="UTF-8"?>
<svg viewBox="0 0 100 100" version="1.1" xmlns="http://www.w3.org/2000/svg" xmlns:xlink="http://www.w3.org/1999/xlink">
    <!-- Generator: Sketch 55.1 (78136) - https://sketchapp.com -->
    <title>Slice 1</title>
    <desc>Created with Sketch.</desc>
    <g id="Page-1" stroke="none" stroke-width="1" fill="none" fill-rule="evenodd">
        <g id="hexa-cell-2" transform="translate(6.000000, 7.000000)">
            <g id="Group-6-Copy" stroke-linecap="round" stroke-linejoin="round" transform="translate(0.000000, 22.000000)" stroke="#3F3F3F">
                <polygon id="Polygon-2" transform="translate(28.000000, 31.500000) rotate(-30.000000) translate(-28.000000, -31.500000) " points="28 9.45 47.2 20.475 47.2 42.525 28 53.55 8.8 42.525 8.8 20.475"></polygon>
                <path d="M46.4,50.4 L39.2,63" id="Line-6-Copy-2" transform="translate(42.800000, 56.700000) scale(-1, 1) rotate(-180.000000) translate(-42.800000, -56.700000) "></path>
                <path d="M16.8,0 L9.6,12.6" id="Line-6-Copy" transform="translate(13.200000, 6.300000) scale(-1, 1) rotate(-180.000000) translate(-13.200000, -6.300000) "></path>
                <path d="M16.8,50.4 L9.6,63" id="Line-6-Copy-3"></path>
            </g>
            <g id="Group-6-Copy-2" stroke-linecap="round" stroke-linejoin="round" transform="translate(33.000000, 3.000000)" stroke="#3F3F3F">
                <polyline id="Polygon-2" transform="translate(28.000000, 31.500000) rotate(-30.000000) translate(-28.000000, -31.500000) " points="8.8 20.475 28 9.45 28 9.45 47.2 20.475 47.2 42.525 28 53.55 8.8 42.525"></polyline>
                <path d="M46.4,0 L39.2,12.6" id="Line-6"></path>
                <path d="M46.4,50.4 L39.2,63" id="Line-6-Copy-2" transform="translate(42.800000, 56.700000) scale(-1, 1) rotate(-180.000000) translate(-42.800000, -56.700000) "></path>
                <path d="M16.8,0 L9.6,12.6" id="Line-6-Copy" transform="translate(13.200000, 6.300000) scale(-1, 1) rotate(-180.000000) translate(-13.200000, -6.300000) "></path>
            </g>
            <g id="Oval-Copy-274" transform="translate(46.000000, 84.000000) rotate(-90.000000) translate(-46.000000, -84.000000) translate(43.000000, 81.000000)" stroke="#151515">
                <circle id="Oval" stroke-width="1.5" fill="#FFA504" cx="3" cy="3" r="2.25"></circle>
                <g id="path-1-link">
                    <circle id="path-1" cx="3" cy="3" r="3"></circle>
                </g>
            </g>
            <g id="Oval-Copy-280" transform="translate(9.000000, 84.000000) rotate(-90.000000) translate(-9.000000, -84.000000) translate(6.000000, 81.000000)" stroke="#151515">
                <circle id="Oval" stroke-width="1.5" fill="#FFA504" cx="3" cy="3" r="2.25"></circle>
                <g id="path-2-link">
                    <circle id="path-2" cx="3" cy="3" r="3"></circle>
                </g>
            </g>
            <g id="Oval-Copy-275" transform="translate(9.000000, 21.000000) rotate(-90.000000) translate(-9.000000, -21.000000) translate(6.000000, 18.000000)" stroke="#151515">
                <circle id="Oval" stroke-width="1.5" fill="#FFA504" cx="3" cy="3" r="2.25"></circle>
                <g id="path-3-link">
                    <circle id="path-3" cx="3" cy="3" r="3"></circle>
                </g>
            </g>
            <g id="Oval-Copy-276" transform="translate(80.000000, 66.000000) rotate(-90.000000) translate(-80.000000, -66.000000) translate(77.000000, 63.000000)" stroke="#151515">
                <circle id="Oval" stroke-width="1.5" fill="#FFA504" cx="3" cy="3" r="2.25"></circle>
                <g id="path-4-link">
                    <circle id="path-4" cx="3" cy="3" r="3"></circle>
                </g>
            </g>
            <g id="Oval-Copy-277" transform="translate(79.000000, 3.000000) rotate(-90.000000) translate(-79.000000, -3.000000) translate(76.000000, 0.000000)" stroke="#151515">
                <circle id="Oval" stroke-width="1.5" fill="#FFA504" cx="3" cy="3" r="2.25"></circle>
                <g id="path-5-link">
                    <circle id="path-5" cx="3" cy="3" r="3"></circle>
                </g>
            </g>
            <g id="Oval-Copy-279" transform="translate(42.000000, 3.000000) rotate(-90.000000) translate(-42.000000, -3.000000) translate(39.000000, 0.000000)" stroke="#151515">
                <circle id="Oval" stroke-width="1.5" fill="#FFA504" cx="3" cy="3" r="2.25"></circle>
                <g id="path-6-link">
                    <circle id="path-6" cx="3" cy="3" r="3"></circle>
                </g>
            </g>
        </g>
    </g>
</svg>