<?xml version="1.0" encoding="UTF-8"?>
<svg viewBox="0 0 100 100" version="1.1" xmlns="http://www.w3.org/2000/svg" xmlns:xlink="http://www.w3.org/1999/xlink">
    <!-- Generator: Sketch 55.1 (78136) - https://sketchapp.com -->
    <title>hexa-cell-1</title>
    <desc>Created with Sketch.</desc>
    <g id="Page-1" stroke="none" stroke-width="1" fill="none" fill-rule="evenodd">
        <g id="hexa-cell-1" transform="translate(15.000000, 7.000000)">
            <polygon id="Polygon-2" stroke="#3F3F3F" stroke-linecap="round" stroke-linejoin="round" transform="translate(35.000000, 43.000000) rotate(-30.000000) translate(-35.000000, -43.000000) " points="35 15 59 29 59 57 35 71 11 57 11 29"></polygon>
            <path d="M58,3 L49,19" id="Line-6" stroke="#3F3F3F" stroke-linecap="round" stroke-linejoin="round"></path>
            <path d="M58,67 L49,83" id="Line-6-Copy-2" stroke="#3F3F3F" stroke-linecap="round" stroke-linejoin="round" transform="translate(53.500000, 75.000000) scale(-1, 1) rotate(-180.000000) translate(-53.500000, -75.000000) "></path>
            <path d="M21,3 L12,19" id="Line-6-Copy" stroke="#3F3F3F" stroke-linecap="round" stroke-linejoin="round" transform="translate(16.500000, 11.000000) scale(-1, 1) rotate(-180.000000) translate(-16.500000, -11.000000) "></path>
            <path d="M21,67 L12,83" id="Line-6-Copy-3" stroke="#3F3F3F" stroke-linecap="round" stroke-linejoin="round"></path>
            <g id="Oval-Copy-271" transform="translate(12.000000, 83.000000) rotate(-90.000000) translate(-12.000000, -83.000000) translate(9.000000, 80.000000)" stroke="#151515">
                <circle id="Oval" stroke-width="1.5" fill="#FFA504" cx="3" cy="3" r="2.25"></circle>
                <g id="path-1-link">
                    <circle id="path-1" cx="3" cy="3" r="3"></circle>
                </g>
            </g>
            <g id="Oval-Copy-273" transform="translate(58.000000, 83.000000) rotate(-90.000000) translate(-58.000000, -83.000000) translate(55.000000, 80.000000)" stroke="#151515">
                <circle id="Oval" stroke-width="1.5" fill="#FFA504" cx="3" cy="3" r="2.25"></circle>
                <g id="path-2-link">
                    <circle id="path-2" cx="3" cy="3" r="3"></circle>
                </g>
            </g>
            <g id="Oval-Copy-270" transform="translate(58.000000, 3.000000) rotate(-90.000000) translate(-58.000000, -3.000000) translate(55.000000, 0.000000)" stroke="#151515">
                <circle id="Oval" stroke-width="1.5" fill="#FFA504" cx="3" cy="3" r="2.25"></circle>
                <g id="path-3-link">
                    <circle id="path-3" cx="3" cy="3" r="3"></circle>
                </g>
            </g>
            <g id="Oval-Copy-278" transform="translate(12.000000, 3.000000) rotate(-90.000000) translate(-12.000000, -3.000000) translate(9.000000, 0.000000)" stroke="#151515">
                <circle id="Oval" stroke-width="1.5" fill="#FFA504" cx="3" cy="3" r="2.25"></circle>
                <g id="path-4-link">
                    <circle id="path-4" cx="3" cy="3" r="3"></circle>
                </g>
            </g>
        </g>
    </g>
</svg>