<?xml version="1.0" encoding="UTF-8"?>
<svg viewBox="0 0 100 100" version="1.1" xmlns="http://www.w3.org/2000/svg" xmlns:xlink="http://www.w3.org/1999/xlink">
    <!-- Generator: Sketch 55.1 (78136) - https://sketchapp.com -->
    <title>reading-book</title>
    <desc>Created with Sketch.</desc>
    <g id="Page-1" stroke="none" stroke-width="1" fill="none" fill-rule="evenodd">
        <g id="reading-book" transform="translate(10.000000, 16.000000)">
            <path d="M40.4359291,68.3925236 C50.7723747,60.6535825 63.3268223,58.9457247 78.0992717,63.2689502 C78.0576316,48.5307927 78.0576316,32.6959075 78.0992717,15.7642947 C74.7123167,14.520984 72.3179175,13.7392786 70.9160742,13.4191786" id="Path-337" stroke="#FFA504" stroke-linecap="round" stroke-linejoin="round"></path>
            <path d="M40.3638298,68.4182425 C44.9475037,57.7638798 54.9889981,51.5255143 70.4883127,49.7031461 C70.4674927,37.9992071 70.4674927,22.944462 70.4883127,4.53891099 C58.2769622,5.37600013 48.2252721,10.9517976 40.3332422,21.2663034" id="Path-338" stroke="#FFA504" stroke-linecap="round" stroke-linejoin="round"></path>
            <path d="M2.9007284,68.3925236 C13.0680985,60.6535825 25.5380082,58.9457247 40.3104577,63.2689502 C40.2688175,48.5307927 40.2688175,32.6959075 40.3104577,15.7642947 C36.9235027,14.520984 34.5291035,13.7392786 33.1272601,13.4191786" id="Path-337" stroke="#FFA504" stroke-linecap="round" stroke-linejoin="round" transform="translate(21.605593, 40.905851) scale(-1, 1) translate(-21.605593, -40.905851) "></path>
            <path d="M10.5132483,68.4182425 C14.9361699,57.7638798 24.897288,51.5255143 40.3966027,49.7031461 C40.3757827,37.9992071 40.3757827,22.944462 40.3966027,4.53891099 C28.3653559,5.37600013 18.4037176,10.9517976 10.5116878,21.2663034" id="Path-338" stroke="#FFA504" stroke-linecap="round" stroke-linejoin="round" transform="translate(25.454145, 36.478577) scale(-1, 1) translate(-25.454145, -36.478577) "></path>
            <path d="M40.3613705,68.4278954 L40.3613705,20.8244894" id="Path-339" stroke="#FFA504" stroke-linecap="round" stroke-linejoin="round"></path>
            <g id="nucleus-copy-25" transform="translate(70.500000, 4.000000) rotate(-90.000000) translate(-70.500000, -4.000000) translate(67.000000, 1.000000)" stroke="#151515">
                <circle id="Oval" stroke-width="1.5" fill="#FFA504" cx="3.5" cy="3" r="2.25"></circle>
                <g id="path-1-link">
                    <circle id="path-1" cx="3.5" cy="3" r="3"></circle>
                </g>
            </g>
            <g id="nucleus-copy-28" transform="translate(10.500000, 4.000000) rotate(-90.000000) translate(-10.500000, -4.000000) translate(7.000000, 1.000000)" stroke="#151515">
                <circle id="Oval" stroke-width="1.5" fill="#FFA504" cx="3.5" cy="3" r="2.25"></circle>
                <g id="path-2-link">
                    <circle id="path-2" cx="3.5" cy="3" r="3"></circle>
                </g>
            </g>
            <g id="nucleus-copy-29" transform="translate(3.000000, 63.000000) rotate(-90.000000) translate(-3.000000, -63.000000) translate(0.000000, 60.000000)" stroke="#151515">
                <circle id="Oval" stroke-width="1.5" fill="#FFA504" cx="3" cy="3" r="2.25"></circle>
                <g id="path-3-link">
                    <circle id="path-3" cx="3" cy="3" r="3"></circle>
                </g>
            </g>
            <g id="nucleus-copy-30" transform="translate(78.000000, 63.000000) rotate(-90.000000) translate(-78.000000, -63.000000) translate(75.000000, 60.000000)" stroke="#151515">
                <circle id="Oval" stroke-width="1.5" fill="#FFA504" cx="3" cy="3" r="2.25"></circle>
                <g id="path-4-link">
                    <circle id="path-4" cx="3" cy="3" r="3"></circle>
                </g>
            </g>
        </g>
    </g>
</svg>