<svg version="1.1" xmlns="http://www.w3.org/2000/svg" viewBox="0 0 1151 575" width="1151" height="575">
  <!-- svg-source:excalidraw -->
  
  <defs>
    <style>
      @font-face {
        font-family: "Virgil";
        src: url("https://excalidraw.com/Virgil.woff2");
      }
      @font-face {
        font-family: "Cascadia";
        src: url("https://excalidraw.com/Cascadia.woff2");
      }
    </style>
  </defs>
  <g stroke-linecap="round"><g transform="translate(143.5 489) rotate(0 329.5 -2)"><path d="M0 0 C109.83 -0.67, 549.17 -3.33, 659 -4 M0 0 C109.83 -0.67, 549.17 -3.33, 659 -4" stroke="#000000" stroke-width="1" fill="none"></path></g></g><g stroke-linecap="round"><g transform="translate(144.5 488) rotate(0 0 -227)"><path d="M0 0 C0 -75.67, 0 -378.33, 0 -454 M0 0 C0 -75.67, 0 -378.33, 0 -454" stroke="#000000" stroke-width="1" fill="none"></path></g></g><g transform="translate(277.5 530) rotate(0 228 17.5)"><text x="0" y="25" font-family="Virgil, Segoe UI Emoji" font-size="28px" fill="#000000" text-anchor="start" style="white-space: pre;" direction="ltr">Effort for average (?) developer</text></g><g transform="translate(10 231.5) rotate(0 42.5 17.5)"><text x="0" y="25" font-family="Virgil, Segoe UI Emoji" font-size="28px" fill="#000000" text-anchor="start" style="white-space: pre;" direction="ltr">Utility</text></g><g transform="translate(170.5 417.5) rotate(0 115 10)"><text x="115" y="14" font-family="Virgil, Segoe UI Emoji" font-size="16px" fill="#c92a2a" text-anchor="middle" style="white-space: pre;" direction="ltr">use regex to parse programs</text></g><g transform="translate(203.5 271) rotate(0 152 10)"><text x="152" y="14" font-family="Virgil, Segoe UI Emoji" font-size="16px" fill="#000000" text-anchor="middle" style="white-space: pre;" direction="ltr">"hey this is useful i learned something"</text></g><g stroke-linecap="round" transform="translate(172.5 245) rotate(0 7 7)"><path d="M14 7 C14 7.41, 13.96 7.82, 13.89 8.22 C13.82 8.61, 13.72 9.01, 13.58 9.39 C13.44 9.77, 13.26 10.15, 13.06 10.5 C12.86 10.85, 12.62 11.19, 12.36 11.5 C12.1 11.81, 11.81 12.1, 11.5 12.36 C11.19 12.62, 10.85 12.86, 10.5 13.06 C10.15 13.26, 9.77 13.44, 9.39 13.58 C9.01 13.72, 8.61 13.82, 8.22 13.89 C7.82 13.96, 7.41 14, 7 14 C6.59 14, 6.18 13.96, 5.78 13.89 C5.39 13.82, 4.99 13.72, 4.61 13.58 C4.23 13.44, 3.85 13.26, 3.5 13.06 C3.15 12.86, 2.81 12.62, 2.5 12.36 C2.19 12.1, 1.9 11.81, 1.64 11.5 C1.38 11.19, 1.14 10.85, 0.94 10.5 C0.74 10.15, 0.56 9.77, 0.42 9.39 C0.28 9.01, 0.18 8.61, 0.11 8.22 C0.04 7.82, 0 7.41, 0 7 C0 6.59, 0.04 6.18, 0.11 5.78 C0.18 5.39, 0.28 4.99, 0.42 4.61 C0.56 4.23, 0.74 3.85, 0.94 3.5 C1.14 3.15, 1.38 2.81, 1.64 2.5 C1.9 2.19, 2.19 1.9, 2.5 1.64 C2.81 1.38, 3.15 1.14, 3.5 0.94 C3.85 0.74, 4.23 0.56, 4.61 0.42 C4.99 0.28, 5.39 0.18, 5.78 0.11 C6.18 0.04, 6.59 0, 7 0 C7.41 0, 7.82 0.04, 8.22 0.11 C8.61 0.18, 9.01 0.28, 9.39 0.42 C9.77 0.56, 10.15 0.74, 10.5 0.94 C10.85 1.14, 11.19 1.38, 11.5 1.64 C11.81 1.9, 12.1 2.19, 12.36 2.5 C12.62 2.81, 12.86 3.15, 13.06 3.5 C13.26 3.85, 13.44 4.23, 13.58 4.61 C13.72 4.99, 13.82 5.39, 13.89 5.78 C13.96 6.18, 13.98 6.8, 14 7 C14.02 7.2, 14.02 6.8, 14 7" stroke="none" stroke-width="0" fill="#4c6ef5"></path><path d="M14 7 C14 7.41, 13.96 7.82, 13.89 8.22 C13.82 8.61, 13.72 9.01, 13.58 9.39 C13.44 9.77, 13.26 10.15, 13.06 10.5 C12.86 10.85, 12.62 11.19, 12.36 11.5 C12.1 11.81, 11.81 12.1, 11.5 12.36 C11.19 12.62, 10.85 12.86, 10.5 13.06 C10.15 13.26, 9.77 13.44, 9.39 13.58 C9.01 13.72, 8.61 13.82, 8.22 13.89 C7.82 13.96, 7.41 14, 7 14 C6.59 14, 6.18 13.96, 5.78 13.89 C5.39 13.82, 4.99 13.72, 4.61 13.58 C4.23 13.44, 3.85 13.26, 3.5 13.06 C3.15 12.86, 2.81 12.62, 2.5 12.36 C2.19 12.1, 1.9 11.81, 1.64 11.5 C1.38 11.19, 1.14 10.85, 0.94 10.5 C0.74 10.15, 0.56 9.77, 0.42 9.39 C0.28 9.01, 0.18 8.61, 0.11 8.22 C0.04 7.82, 0 7.41, 0 7 C0 6.59, 0.04 6.18, 0.11 5.78 C0.18 5.39, 0.28 4.99, 0.42 4.61 C0.56 4.23, 0.74 3.85, 0.94 3.5 C1.14 3.15, 1.38 2.81, 1.64 2.5 C1.9 2.19, 2.19 1.9, 2.5 1.64 C2.81 1.38, 3.15 1.14, 3.5 0.94 C3.85 0.74, 4.23 0.56, 4.61 0.42 C4.99 0.28, 5.39 0.18, 5.78 0.11 C6.18 0.04, 6.59 0, 7 0 C7.41 0, 7.82 0.04, 8.22 0.11 C8.61 0.18, 9.01 0.28, 9.39 0.42 C9.77 0.56, 10.15 0.74, 10.5 0.94 C10.85 1.14, 11.19 1.38, 11.5 1.64 C11.81 1.9, 12.1 2.19, 12.36 2.5 C12.62 2.81, 12.86 3.15, 13.06 3.5 C13.26 3.85, 13.44 4.23, 13.58 4.61 C13.72 4.99, 13.82 5.39, 13.89 5.78 C13.96 6.18, 13.98 6.8, 14 7 C14.02 7.2, 14.02 6.8, 14 7" stroke="#1864ab" stroke-width="2" fill="none"></path></g><g stroke-linecap="round" transform="translate(169.5 472) rotate(0 7 7)"><path d="M14 7 C14 7.41, 13.96 7.82, 13.89 8.22 C13.82 8.61, 13.72 9.01, 13.58 9.39 C13.44 9.77, 13.26 10.15, 13.06 10.5 C12.86 10.85, 12.62 11.19, 12.36 11.5 C12.1 11.81, 11.81 12.1, 11.5 12.36 C11.19 12.62, 10.85 12.86, 10.5 13.06 C10.15 13.26, 9.77 13.44, 9.39 13.58 C9.01 13.72, 8.61 13.82, 8.22 13.89 C7.82 13.96, 7.41 14, 7 14 C6.59 14, 6.18 13.96, 5.78 13.89 C5.39 13.82, 4.99 13.72, 4.61 13.58 C4.23 13.44, 3.85 13.26, 3.5 13.06 C3.15 12.86, 2.81 12.62, 2.5 12.36 C2.19 12.1, 1.9 11.81, 1.64 11.5 C1.38 11.19, 1.14 10.85, 0.94 10.5 C0.74 10.15, 0.56 9.77, 0.42 9.39 C0.28 9.01, 0.18 8.61, 0.11 8.22 C0.04 7.82, 0 7.41, 0 7 C0 6.59, 0.04 6.18, 0.11 5.78 C0.18 5.39, 0.28 4.99, 0.42 4.61 C0.56 4.23, 0.74 3.85, 0.94 3.5 C1.14 3.15, 1.38 2.81, 1.64 2.5 C1.9 2.19, 2.19 1.9, 2.5 1.64 C2.81 1.38, 3.15 1.14, 3.5 0.94 C3.85 0.74, 4.23 0.56, 4.61 0.42 C4.99 0.28, 5.39 0.18, 5.78 0.11 C6.18 0.04, 6.59 0, 7 0 C7.41 0, 7.82 0.04, 8.22 0.11 C8.61 0.18, 9.01 0.28, 9.39 0.42 C9.77 0.56, 10.15 0.74, 10.5 0.94 C10.85 1.14, 11.19 1.38, 11.5 1.64 C11.81 1.9, 12.1 2.19, 12.36 2.5 C12.62 2.81, 12.86 3.15, 13.06 3.5 C13.26 3.85, 13.44 4.23, 13.58 4.61 C13.72 4.99, 13.82 5.39, 13.89 5.78 C13.96 6.18, 13.98 6.8, 14 7 C14.02 7.2, 14.02 6.8, 14 7" stroke="none" stroke-width="0" fill="#fa5252"></path><path d="M14 7 C14 7.41, 13.96 7.82, 13.89 8.22 C13.82 8.61, 13.72 9.01, 13.58 9.39 C13.44 9.77, 13.26 10.15, 13.06 10.5 C12.86 10.85, 12.62 11.19, 12.36 11.5 C12.1 11.81, 11.81 12.1, 11.5 12.36 C11.19 12.62, 10.85 12.86, 10.5 13.06 C10.15 13.26, 9.77 13.44, 9.39 13.58 C9.01 13.72, 8.61 13.82, 8.22 13.89 C7.82 13.96, 7.41 14, 7 14 C6.59 14, 6.18 13.96, 5.78 13.89 C5.39 13.82, 4.99 13.72, 4.61 13.58 C4.23 13.44, 3.85 13.26, 3.5 13.06 C3.15 12.86, 2.81 12.62, 2.5 12.36 C2.19 12.1, 1.9 11.81, 1.64 11.5 C1.38 11.19, 1.14 10.85, 0.94 10.5 C0.74 10.15, 0.56 9.77, 0.42 9.39 C0.28 9.01, 0.18 8.61, 0.11 8.22 C0.04 7.82, 0 7.41, 0 7 C0 6.59, 0.04 6.18, 0.11 5.78 C0.18 5.39, 0.28 4.99, 0.42 4.61 C0.56 4.23, 0.74 3.85, 0.94 3.5 C1.14 3.15, 1.38 2.81, 1.64 2.5 C1.9 2.19, 2.19 1.9, 2.5 1.64 C2.81 1.38, 3.15 1.14, 3.5 0.94 C3.85 0.74, 4.23 0.56, 4.61 0.42 C4.99 0.28, 5.39 0.18, 5.78 0.11 C6.18 0.04, 6.59 0, 7 0 C7.41 0, 7.82 0.04, 8.22 0.11 C8.61 0.18, 9.01 0.28, 9.39 0.42 C9.77 0.56, 10.15 0.74, 10.5 0.94 C10.85 1.14, 11.19 1.38, 11.5 1.64 C11.81 1.9, 12.1 2.19, 12.36 2.5 C12.62 2.81, 12.86 3.15, 13.06 3.5 C13.26 3.85, 13.44 4.23, 13.58 4.61 C13.72 4.99, 13.82 5.39, 13.89 5.78 C13.96 6.18, 13.98 6.8, 14 7 C14.02 7.2, 14.02 6.8, 14 7" stroke="#c92a2a" stroke-width="2" fill="none"></path></g><g transform="translate(171.5 441) rotate(0 133 20)"><text x="133" y="14" font-family="Virgil, Segoe UI Emoji" font-size="16px" fill="#000000" text-anchor="middle" style="white-space: pre;" direction="ltr">"thought this would be useful but</text><text x="133" y="34" font-family="Virgil, Segoe UI Emoji" font-size="16px" fill="#000000" text-anchor="middle" style="white-space: pre;" direction="ltr">only created more problems"</text></g><g transform="translate(202.5 242) rotate(0 143 10)"><text x="143" y="14" font-family="Virgil, Segoe UI Emoji" font-size="16px" fill="#1864ab" text-anchor="middle" style="white-space: pre;" direction="ltr">cheap static call graphs (this post)</text></g><g stroke-linecap="round" transform="translate(726.5 47) rotate(0 7 7)"><path d="M14 7 C14 7.41, 13.96 7.82, 13.89 8.22 C13.82 8.61, 13.72 9.01, 13.58 9.39 C13.44 9.77, 13.26 10.15, 13.06 10.5 C12.86 10.85, 12.62 11.19, 12.36 11.5 C12.1 11.81, 11.81 12.1, 11.5 12.36 C11.19 12.62, 10.85 12.86, 10.5 13.06 C10.15 13.26, 9.77 13.44, 9.39 13.58 C9.01 13.72, 8.61 13.82, 8.22 13.89 C7.82 13.96, 7.41 14, 7 14 C6.59 14, 6.18 13.96, 5.78 13.89 C5.39 13.82, 4.99 13.72, 4.61 13.58 C4.23 13.44, 3.85 13.26, 3.5 13.06 C3.15 12.86, 2.81 12.62, 2.5 12.36 C2.19 12.1, 1.9 11.81, 1.64 11.5 C1.38 11.19, 1.14 10.85, 0.94 10.5 C0.74 10.15, 0.56 9.77, 0.42 9.39 C0.28 9.01, 0.18 8.61, 0.11 8.22 C0.04 7.82, 0 7.41, 0 7 C0 6.59, 0.04 6.18, 0.11 5.78 C0.18 5.39, 0.28 4.99, 0.42 4.61 C0.56 4.23, 0.74 3.85, 0.94 3.5 C1.14 3.15, 1.38 2.81, 1.64 2.5 C1.9 2.19, 2.19 1.9, 2.5 1.64 C2.81 1.38, 3.15 1.14, 3.5 0.94 C3.85 0.74, 4.23 0.56, 4.61 0.42 C4.99 0.28, 5.39 0.18, 5.78 0.11 C6.18 0.04, 6.59 0, 7 0 C7.41 0, 7.82 0.04, 8.22 0.11 C8.61 0.18, 9.01 0.28, 9.39 0.42 C9.77 0.56, 10.15 0.74, 10.5 0.94 C10.85 1.14, 11.19 1.38, 11.5 1.64 C11.81 1.9, 12.1 2.19, 12.36 2.5 C12.62 2.81, 12.86 3.15, 13.06 3.5 C13.26 3.85, 13.44 4.23, 13.58 4.61 C13.72 4.99, 13.82 5.39, 13.89 5.78 C13.96 6.18, 13.98 6.8, 14 7 C14.02 7.2, 14.02 6.8, 14 7" stroke="none" stroke-width="0" fill="#fab005"></path><path d="M14 7 C14 7.41, 13.96 7.82, 13.89 8.22 C13.82 8.61, 13.72 9.01, 13.58 9.39 C13.44 9.77, 13.26 10.15, 13.06 10.5 C12.86 10.85, 12.62 11.19, 12.36 11.5 C12.1 11.81, 11.81 12.1, 11.5 12.36 C11.19 12.62, 10.85 12.86, 10.5 13.06 C10.15 13.26, 9.77 13.44, 9.39 13.58 C9.01 13.72, 8.61 13.82, 8.22 13.89 C7.82 13.96, 7.41 14, 7 14 C6.59 14, 6.18 13.96, 5.78 13.89 C5.39 13.82, 4.99 13.72, 4.61 13.58 C4.23 13.44, 3.85 13.26, 3.5 13.06 C3.15 12.86, 2.81 12.62, 2.5 12.36 C2.19 12.1, 1.9 11.81, 1.64 11.5 C1.38 11.19, 1.14 10.85, 0.94 10.5 C0.74 10.15, 0.56 9.77, 0.42 9.39 C0.28 9.01, 0.18 8.61, 0.11 8.22 C0.04 7.82, 0 7.41, 0 7 C0 6.59, 0.04 6.18, 0.11 5.78 C0.18 5.39, 0.28 4.99, 0.42 4.61 C0.56 4.23, 0.74 3.85, 0.94 3.5 C1.14 3.15, 1.38 2.81, 1.64 2.5 C1.9 2.19, 2.19 1.9, 2.5 1.64 C2.81 1.38, 3.15 1.14, 3.5 0.94 C3.85 0.74, 4.23 0.56, 4.61 0.42 C4.99 0.28, 5.39 0.18, 5.78 0.11 C6.18 0.04, 6.59 0, 7 0 C7.41 0, 7.82 0.04, 8.22 0.11 C8.61 0.18, 9.01 0.28, 9.39 0.42 C9.77 0.56, 10.15 0.74, 10.5 0.94 C10.85 1.14, 11.19 1.38, 11.5 1.64 C11.81 1.9, 12.1 2.19, 12.36 2.5 C12.62 2.81, 12.86 3.15, 13.06 3.5 C13.26 3.85, 13.44 4.23, 13.58 4.61 C13.72 4.99, 13.82 5.39, 13.89 5.78 C13.96 6.18, 13.98 6.8, 14 7 C14.02 7.2, 14.02 6.8, 14 7" stroke="#e67700" stroke-width="2" fill="none"></path></g><g transform="translate(750 73) rotate(0 195.5 30)"><text x="0" y="14" font-family="Virgil, Segoe UI Emoji" font-size="16px" fill="#000000" text-anchor="start" style="white-space: pre;" direction="ltr">"I have two decades of experience with</text><text x="0" y="34" font-family="Virgil, Segoe UI Emoji" font-size="16px" fill="#000000" text-anchor="start" style="white-space: pre;" direction="ltr"> C++ and follow the spec, C++ 20 coming up btw.</text><text x="0" y="54" font-family="Virgil, Segoe UI Emoji" font-size="16px" fill="#000000" text-anchor="start" style="white-space: pre;" direction="ltr"> oh, what language did you say you use?"</text></g><g transform="translate(753 43) rotate(0 103.5 10)"><text x="103.5" y="14" font-family="Virgil, Segoe UI Emoji" font-size="16px" fill="#e67700" text-anchor="middle" style="white-space: pre;" direction="ltr">i can do all this and more</text></g><g stroke-linecap="round" transform="translate(515.5 148) rotate(0 7 7)"><path d="M14 7 C14 7.41, 13.96 7.82, 13.89 8.22 C13.82 8.61, 13.72 9.01, 13.58 9.39 C13.44 9.77, 13.26 10.15, 13.06 10.5 C12.86 10.85, 12.62 11.19, 12.36 11.5 C12.1 11.81, 11.81 12.1, 11.5 12.36 C11.19 12.62, 10.85 12.86, 10.5 13.06 C10.15 13.26, 9.77 13.44, 9.39 13.58 C9.01 13.72, 8.61 13.82, 8.22 13.89 C7.82 13.96, 7.41 14, 7 14 C6.59 14, 6.18 13.96, 5.78 13.89 C5.39 13.82, 4.99 13.72, 4.61 13.58 C4.23 13.44, 3.85 13.26, 3.5 13.06 C3.15 12.86, 2.81 12.62, 2.5 12.36 C2.19 12.1, 1.9 11.81, 1.64 11.5 C1.38 11.19, 1.14 10.85, 0.94 10.5 C0.74 10.15, 0.56 9.77, 0.42 9.39 C0.28 9.01, 0.18 8.61, 0.11 8.22 C0.04 7.82, 0 7.41, 0 7 C0 6.59, 0.04 6.18, 0.11 5.78 C0.18 5.39, 0.28 4.99, 0.42 4.61 C0.56 4.23, 0.74 3.85, 0.94 3.5 C1.14 3.15, 1.38 2.81, 1.64 2.5 C1.9 2.19, 2.19 1.9, 2.5 1.64 C2.81 1.38, 3.15 1.14, 3.5 0.94 C3.85 0.74, 4.23 0.56, 4.61 0.42 C4.99 0.28, 5.39 0.18, 5.78 0.11 C6.18 0.04, 6.59 0, 7 0 C7.41 0, 7.82 0.04, 8.22 0.11 C8.61 0.18, 9.01 0.28, 9.39 0.42 C9.77 0.56, 10.15 0.74, 10.5 0.94 C10.85 1.14, 11.19 1.38, 11.5 1.64 C11.81 1.9, 12.1 2.19, 12.36 2.5 C12.62 2.81, 12.86 3.15, 13.06 3.5 C13.26 3.85, 13.44 4.23, 13.58 4.61 C13.72 4.99, 13.82 5.39, 13.89 5.78 C13.96 6.18, 13.98 6.8, 14 7 C14.02 7.2, 14.02 6.8, 14 7" stroke="none" stroke-width="0" fill="#7950f2"></path><path d="M14 7 C14 7.41, 13.96 7.82, 13.89 8.22 C13.82 8.61, 13.72 9.01, 13.58 9.39 C13.44 9.77, 13.26 10.15, 13.06 10.5 C12.86 10.85, 12.62 11.19, 12.36 11.5 C12.1 11.81, 11.81 12.1, 11.5 12.36 C11.19 12.62, 10.85 12.86, 10.5 13.06 C10.15 13.26, 9.77 13.44, 9.39 13.58 C9.01 13.72, 8.61 13.82, 8.22 13.89 C7.82 13.96, 7.41 14, 7 14 C6.59 14, 6.18 13.96, 5.78 13.89 C5.39 13.82, 4.99 13.72, 4.61 13.58 C4.23 13.44, 3.85 13.26, 3.5 13.06 C3.15 12.86, 2.81 12.62, 2.5 12.36 C2.19 12.1, 1.9 11.81, 1.64 11.5 C1.38 11.19, 1.14 10.85, 0.94 10.5 C0.74 10.15, 0.56 9.77, 0.42 9.39 C0.28 9.01, 0.18 8.61, 0.11 8.22 C0.04 7.82, 0 7.41, 0 7 C0 6.59, 0.04 6.18, 0.11 5.78 C0.18 5.39, 0.28 4.99, 0.42 4.61 C0.56 4.23, 0.74 3.85, 0.94 3.5 C1.14 3.15, 1.38 2.81, 1.64 2.5 C1.9 2.19, 2.19 1.9, 2.5 1.64 C2.81 1.38, 3.15 1.14, 3.5 0.94 C3.85 0.74, 4.23 0.56, 4.61 0.42 C4.99 0.28, 5.39 0.18, 5.78 0.11 C6.18 0.04, 6.59 0, 7 0 C7.41 0, 7.82 0.04, 8.22 0.11 C8.61 0.18, 9.01 0.28, 9.39 0.42 C9.77 0.56, 10.15 0.74, 10.5 0.94 C10.85 1.14, 11.19 1.38, 11.5 1.64 C11.81 1.9, 12.1 2.19, 12.36 2.5 C12.62 2.81, 12.86 3.15, 13.06 3.5 C13.26 3.85, 13.44 4.23, 13.58 4.61 C13.72 4.99, 13.82 5.39, 13.89 5.78 C13.96 6.18, 13.98 6.8, 14 7 C14.02 7.2, 14.02 6.8, 14 7" stroke="#5f3dc4" stroke-width="2" fill="none"></path></g><g transform="translate(541.5 147) rotate(0 75 10)"><text x="75" y="14" font-family="Virgil, Segoe UI Emoji" font-size="16px" fill="#5f3dc4" text-anchor="middle" style="white-space: pre;" direction="ltr">become a sommelier</text></g><g transform="translate(541.5 175) rotate(0 97.5 20)"><text x="0" y="14" font-family="Virgil, Segoe UI Emoji" font-size="16px" fill="#000000" text-anchor="start" style="white-space: pre;" direction="ltr">"didn't realize i need to </text><text x="0" y="34" font-family="Virgil, Segoe UI Emoji" font-size="16px" fill="#000000" text-anchor="start" style="white-space: pre;" direction="ltr"> practice social skills"</text></g><g transform="translate(95.5 10) rotate(0 22 12.5)"><text x="0" y="18" font-family="Virgil, Segoe UI Emoji" font-size="20px" fill="#000000" text-anchor="start" style="white-space: pre;" direction="ltr">more</text></g><g transform="translate(106.5 485.5) rotate(0 19.5 12.5)"><text x="0" y="18" font-family="Virgil, Segoe UI Emoji" font-size="20px" fill="#000000" text-anchor="start" style="white-space: pre;" direction="ltr">less</text></g><g transform="translate(787.5 485.5) rotate(0 22 12.5)"><text x="0" y="18" font-family="Virgil, Segoe UI Emoji" font-size="20px" fill="#000000" text-anchor="start" style="white-space: pre;" direction="ltr">more</text></g></svg>