<svg width="1280" height="720" xmlns="http://www.w3.org/2000/svg" xmlns:xlink="http://www.w3.org/1999/xlink" overflow="hidden"><defs><clipPath id="clip0"><rect x="0" y="0" width="1280" height="720"/></clipPath></defs><g clip-path="url(#clip0)"><rect x="0" y="0" width="1280" height="720" fill="#FFFFFF"/><path d="M180 262.833C180 255.193 186.193 249 193.833 249L671.167 249C678.807 249 685 255.193 685 262.833L685 318.167C685 325.807 678.807 332 671.167 332L193.833 332C186.193 332 180 325.807 180 318.167Z" stroke="#000000" stroke-width="2" stroke-linecap="round" stroke-miterlimit="8" stroke-dasharray="4 4" fill="#FFFFFF" fill-rule="evenodd"/><text fill="#ACA7A7" font-family="Monaco,Monaco_MSFontService,sans-serif" font-weight="400" font-size="21" transform="translate(195.147 299)">function f(uint256 <tspan font-size="21" x="243.833" y="0">arg</tspan>) public <tspan font-size="21" x="397.833" y="0">{</tspan><tspan fill="#009446" font-weight="700" font-size="21" x="410.667" y="0">:[1</tspan><tspan fill="#009446" font-weight="700" font-size="21" x="449.167" y="0">]</tspan><tspan font-size="21" x="462" y="0">}</tspan></text><path d="M761 262.834C761 255.194 767.193 249 774.834 249L1051.17 249C1058.81 249 1065 255.194 1065 262.834L1065 318.166C1065 325.806 1058.81 332 1051.17 332L774.834 332C767.193 332 761 325.806 761 318.166Z" stroke="#000000" stroke-width="2" stroke-linecap="round" stroke-miterlimit="8" fill="#FFFFFF" fill-rule="evenodd"/><text fill="#009446" font-family="Monaco,Monaco_MSFontService,sans-serif" font-weight="400" font-size="21" transform="translate(835.905 299)">g(<tspan font-size="21" x="25.6666" y="0">notfound</tspan>);</text><path d="M180 379.834C180 366.118 191.118 355 204.834 355L660.166 355C673.882 355 685 366.118 685 379.834L685 479.166C685 492.882 673.882 504 660.166 504L204.834 504C191.118 504 180 492.882 180 479.166Z" stroke="#000000" stroke-width="2" stroke-linecap="round" stroke-miterlimit="8" stroke-dasharray="4 4" fill="#FFFFFF" fill-rule="evenodd"/><text fill="#ACA7A7" font-family="Monaco,Monaco_MSFontService,sans-serif" font-weight="400" font-size="21" transform="translate(272.147 412)">function f(<tspan fill="#00709E" font-weight="700" font-size="21" x="141.167" y="0">:[1]</tspan>) <tspan font-size="21" x="218.167" y="0">public {</tspan><tspan font-size="21" x="48" y="25">g(</tspan><tspan font-size="21" x="73.6667" y="25">notfound</tspan>);<tspan font-size="21" x="0" y="51">}</tspan></text><path d="M180 553.834C180 540.118 191.118 529 204.834 529L660.166 529C673.882 529 685 540.118 685 553.834L685 653.166C685 666.882 673.882 678 660.166 678L204.834 678C191.118 678 180 666.882 180 653.166Z" stroke="#000000" stroke-width="2" stroke-linecap="round" stroke-miterlimit="8" stroke-dasharray="4 4" fill="#FFFFFF" fill-rule="evenodd"/><text fill="#ACA7A7" font-family="Monaco,Monaco_MSFontService,sans-serif" font-weight="400" font-size="21" transform="translate(227.23 586)">function f(uint256 <tspan font-size="21" x="243.833" y="0">arg</tspan>) public {<tspan font-size="21" x="48" y="25">g</tspan><tspan font-size="21" x="60.8333" y="25">(</tspan><tspan fill="#B85818" font-weight="700" font-size="21" x="73.6667" y="25">:[1]</tspan><tspan font-size="21" x="125" y="25">);</tspan><tspan font-size="21" x="0" y="51">}</tspan></text><path d="M761 402.667C761 395.119 767.119 389 774.667 389L1051.33 389C1058.88 389 1065 395.119 1065 402.667L1065 457.333C1065 464.881 1058.88 471 1051.33 471L774.667 471C767.119 471 761 464.881 761 457.333Z" stroke="#000000" stroke-width="2" stroke-linecap="round" stroke-miterlimit="8" fill="#FFFFFF" fill-rule="evenodd"/><text fill="#00709E" font-family="Monaco,Monaco_MSFontService,sans-serif" font-weight="400" font-size="21" transform="translate(842.321 438)">uint256 <tspan font-size="21" x="102.667" y="0">arg</tspan></text><path d="M761 575.667C761 568.119 767.119 562 774.667 562L1051.33 562C1058.88 562 1065 568.119 1065 575.667L1065 630.333C1065 637.881 1058.88 644 1051.33 644L774.667 644C767.119 644 761 637.881 761 630.333Z" stroke="#000000" stroke-width="2" stroke-linecap="round" stroke-miterlimit="8" fill="#FFFFFF" fill-rule="evenodd"/><text fill="#B85818" font-family="Monaco,Monaco_MSFontService,sans-serif" font-weight="400" font-size="21" transform="translate(861.571 611)">notfound</text><path d="M272.5 65.8337C272.5 52.9469 282.947 42.5001 295.834 42.5001L982.167 42.5001C995.053 42.5001 1005.5 52.9469 1005.5 65.8337L1005.5 159.166C1005.5 172.053 995.053 182.5 982.167 182.5L295.834 182.5C282.947 182.5 272.5 172.053 272.5 159.166Z" stroke="#000000" stroke-width="3" stroke-linecap="round" stroke-miterlimit="8" fill-rule="evenodd"/><path d="M269.5 67.8337C269.5 54.9469 279.947 44.5001 292.834 44.5001L979.167 44.5001C992.053 44.5001 1002.5 54.9469 1002.5 67.8337L1002.5 161.166C1002.5 174.053 992.053 184.5 979.167 184.5L292.834 184.5C279.947 184.5 269.5 174.053 269.5 161.166Z" stroke="#000000" stroke-width="3" stroke-linecap="round" stroke-miterlimit="8" fill="#FFFFFF" fill-rule="evenodd"/><text fill="#ACA7A7" font-family="Monaco,Monaco_MSFontService,sans-serif" font-weight="400" font-size="32" transform="translate(328.818 88)">function f<tspan fill="#00709E" font-weight="700" font-size="32" x="191.667" y="0">(</tspan><tspan font-size="32" x="210.833" y="0">uint256 </tspan><tspan font-size="32" x="364.167" y="0">arg</tspan><tspan fill="#00709E" font-weight="700" font-size="32" x="421.667" y="0">)</tspan><tspan font-size="32" x="460" y="0">public</tspan><tspan fill="#009446" font-weight="700" font-size="32" x="594.167" y="0">{</tspan><tspan font-size="32" x="48" y="38">g</tspan><tspan fill="#B85818" font-weight="700" font-size="32" x="67.1667" y="38">(</tspan><tspan font-size="32" x="86.3333" y="38">notfound</tspan><tspan fill="#B85818" font-weight="700" font-size="32" x="239.667" y="38">)</tspan><tspan font-size="32" x="258.833" y="38">;</tspan><tspan fill="#009446" font-weight="700" font-size="32" x="0" y="77">}</tspan></text><path d="M1002 113 1089.89 113 1089.89 291.615 1066.87 291.615C1066.32 291.615 1065.87 291.168 1065.87 290.615 1065.87 290.063 1066.32 289.615 1066.87 289.615L1088.89 289.615 1087.89 290.615 1087.89 114 1088.89 115 1002 115C1001.45 115 1001 114.552 1001 114 1001 113.448 1001.45 113 1002 113ZM1074.37 296.146 1064.89 290.615 1074.37 285.085C1074.85 284.807 1075.46 284.968 1075.74 285.445 1076.02 285.922 1075.86 286.534 1075.38 286.812L1067.38 291.479 1067.38 289.752 1075.38 294.418C1075.86 294.696 1076.02 295.309 1075.74 295.786 1075.46 296.263 1074.85 296.424 1074.37 296.146Z"/><path d="M1002 113 1089.89 113 1089.89 430.619 1066.87 430.619C1066.32 430.619 1065.87 430.172 1065.87 429.619 1065.87 429.067 1066.32 428.619 1066.87 428.619L1088.89 428.619 1087.89 429.619 1087.89 114 1088.89 115 1002 115C1001.45 115 1001 114.552 1001 114 1001 113.448 1001.45 113 1002 113ZM1074.37 435.15 1064.89 429.619 1074.37 424.089C1074.85 423.811 1075.46 423.972 1075.74 424.449 1076.02 424.926 1075.86 425.538 1075.38 425.817L1067.38 430.483 1067.38 428.756 1075.38 433.422C1075.86 433.701 1076.02 434.313 1075.74 434.79 1075.46 435.267 1074.85 435.428 1074.37 435.15Z"/><path d="M1002 113 1089.89 113 1089.89 603.946 1066.87 603.946C1066.32 603.946 1065.87 603.499 1065.87 602.946 1065.87 602.394 1066.32 601.946 1066.87 601.946L1088.89 601.946 1087.89 602.946 1087.89 114 1088.89 115 1002 115C1001.45 115 1001 114.552 1001 114 1001 113.448 1001.45 113 1002 113ZM1074.37 608.477 1064.89 602.946 1074.37 597.416C1074.85 597.138 1075.46 597.299 1075.74 597.776 1076.02 598.253 1075.86 598.865 1075.38 599.143L1067.38 603.81 1067.38 602.083 1075.38 606.749C1075.86 607.027 1076.02 607.64 1075.74 608.117 1075.46 608.594 1074.85 608.755 1074.37 608.477Z"/><path d="M0-1 113.842-1 113.842 489.946 90.8219 489.946C90.2696 489.946 89.8219 489.499 89.8219 488.946 89.8219 488.394 90.2696 487.946 90.8219 487.946L112.842 487.946 111.842 488.946 111.842 0 112.842 1 0 1C-0.552285 1-1 0.552285-1 0-1-0.552285-0.552285-1 0-1ZM98.318 494.477 88.8373 488.946 98.318 483.416C98.7951 483.138 99.4074 483.299 99.6857 483.776 99.9639 484.253 99.8028 484.865 99.3258 485.144L91.3258 489.81 91.3258 488.083 99.3258 492.749C99.8028 493.028 99.9639 493.64 99.6857 494.117 99.4074 494.594 98.7951 494.755 98.318 494.477Z" transform="matrix(-1 1.22465e-16 1.22465e-16 1 268.842 114)"/><path d="M0-1 113.842-1 113.842 316.62 90.822 316.62C90.2697 316.62 89.822 316.172 89.822 315.62 89.822 315.067 90.2697 314.62 90.822 314.62L112.842 314.62 111.842 315.62 111.842 0 112.842 1 0 1C-0.552285 1-1 0.552285-1 0-1-0.552285-0.552285-1 0-1ZM98.3181 321.15 88.8374 315.62 98.3181 310.089C98.7952 309.811 99.4075 309.972 99.6858 310.449 99.9641 310.926 99.8029 311.538 99.3259 311.817L91.3259 316.483 91.3259 314.756 99.3259 319.422C99.8029 319.701 99.9641 320.313 99.6858 320.79 99.4075 321.267 98.7952 321.428 98.3181 321.15Z" transform="matrix(-1 1.22465e-16 1.22465e-16 1 268.842 114)"/><path d="M0-1 113.842-1 113.842 177.338 90.8219 177.338C90.2696 177.338 89.8219 176.89 89.8219 176.338 89.8219 175.785 90.2696 175.338 90.8219 175.338L112.842 175.338 111.842 176.338 111.842 0 112.842 1 0 1C-0.552285 1-1 0.552285-1 0-1-0.552285-0.552285-1 0-1ZM98.318 181.868 88.8373 176.338 98.318 170.807C98.7951 170.529 99.4074 170.69 99.6857 171.167 99.9639 171.644 99.8028 172.256 99.3258 172.535L91.3258 177.201 91.3258 175.474 99.3258 180.141C99.8028 180.419 99.9639 181.031 99.6857 181.508 99.4074 181.985 98.7951 182.146 98.318 181.868Z" transform="matrix(-1 1.22465e-16 1.22465e-16 1 268.842 114)"/></g></svg>