<svg viewBox="0 0 100 100" xmlns="http://www.w3.org/2000/svg"><g stroke-width="1.4" fill="none" fill-rule="evenodd"><path stroke="#FFA504" stroke-linecap="round" stroke-linejoin="round" d="M36 25.751l27.785.125 14 24.248L64 74.25l-27.785-.125-14-24.248zM73 10l-9 16m9 64l-9-16M36 26l-9-16m9 64l-9 16"/><g transform="rotate(-90 58.5 34.5)" stroke="#151515"><circle stroke-width="1.5" fill="#FFA504" cx="3" cy="3" r="2.25"/><circle cx="3" cy="3" r="3"/></g><g transform="rotate(-90 81.5 11.5)" stroke="#151515"><circle stroke-width="1.5" fill="#FFA504" cx="3" cy="3" r="2.25"/><circle cx="3" cy="3" r="3"/></g><g transform="rotate(-90 41.5 -28.5)" stroke="#151515"><circle stroke-width="1.5" fill="#FFA504" cx="3" cy="3" r="2.25"/><circle cx="3" cy="3" r="3"/></g><g transform="rotate(-90 18.5 -5.5)" stroke="#151515"><circle stroke-width="1.5" fill="#FFA504" cx="3" cy="3" r="2.25"/><circle cx="3" cy="3" r="3"/></g></g></svg>