<svg xmlns="http://www.w3.org/2000/svg" width="34" height="34" fill="#fff"><rect width="100%" height="100%" fill="#6f42c1e6" rx="4"/><g fill-rule="evenodd"><path d="M11.75 27a1.75 1.75 0 110-3.5 1.75 1.75 0 010 3.5zM8.5 25.25a3.25 3.25 0 106.5 0 3.25 3.25 0 00-6.5 0zm3.25-12.75a1.75 1.75 0 110-3.5 1.75 1.75 0 010 3.5zM8.5 10.75a3.25 3.25 0 106.5 0 3.25 3.25 0 00-6.5 0zM24.25 21a1.75 1.75 0 110-3.5 1.75 1.75 0 010 3.5zM21 19.25a3.25 3.25 0 106.5 0 3.25 3.25 0 00-6.5 0z"/><path d="M12.5 13.25c0 2.9 2.35 5.25 5.25 5.25h4.5V20h-4.5A6.75 6.75 0 0111 13.25h1.5z"/><path d="M11.75 22.75a.75.75 0 00.75-.75v-8a.75.75 0 00-1.5 0v8c0 .414.336.75.75.75z"/></g></svg>